<?xml version="1.0" encoding="utf-8"?><svg viewBox="0 0 100 100" xmlns="http://www.w3.org/2000/svg" width="207px" height="207px" xmlns:xlink="http://www.w3.org/1999/xlink" style="width:100%;height:100%;background-size:initial;background-repeat-y:initial;background-repeat-x:initial;background-position-y:initial;background-position-x:initial;background-origin:initial;background-image:initial;background-clip:initial;background-attachment:initial;animation-play-state:running" ><g class="ldl-scale" style="transform-origin:50% 50%;transform:rotate(0deg) scale(0.8, 0.8);animation-play-state:running" ><g style="animation-play-state:running" ><path fill="#666" d="M89.764 60.828l-3.99 9.633a3.09 3.09 0 0 1-4.038 1.673l-3.483-1.443c-1.211-.501-2.617-.194-3.476.795a32.598 32.598 0 0 1-3.286 3.279c-.994.86-1.305 2.268-.803 3.482l1.445 3.489a3.09 3.09 0 0 1-1.673 4.038l-9.633 3.99a3.09 3.09 0 0 1-4.038-1.673l-1.445-3.489c-.503-1.214-1.719-1.99-3.03-1.895a32.54 32.54 0 0 1-4.642.005c-1.307-.092-2.519.685-3.02 1.896l-1.443 3.483a3.09 3.09 0 0 1-4.038 1.673l-9.633-3.99a3.09 3.09 0 0 1-1.673-4.038l1.443-3.483c.501-1.211.194-2.617-.795-3.476a32.598 32.598 0 0 1-3.279-3.286c-.86-.994-2.268-1.305-3.482-.803l-3.489 1.445a3.09 3.09 0 0 1-4.038-1.673l-3.99-9.633a3.09 3.09 0 0 1 1.673-4.038l3.489-1.445c1.214-.503 1.99-1.719 1.895-3.03a32.54 32.54 0 0 1-.005-4.642c.092-1.307-.685-2.519-1.896-3.02l-3.483-1.443a3.09 3.09 0 0 1-1.673-4.038l3.99-9.633a3.09 3.09 0 0 1 4.038-1.673l3.483 1.443c1.211.501 2.617.194 3.476-.795a32.598 32.598 0 0 1 3.286-3.279c.994-.86 1.305-2.268.803-3.482l-1.445-3.489a3.09 3.09 0 0 1 1.673-4.038l9.633-3.99a3.09 3.09 0 0 1 4.038 1.673l1.445 3.489c.503 1.214 1.719 1.99 3.03 1.895a32.54 32.54 0 0 1 4.642-.005c1.307.092 2.519-.685 3.02-1.896l1.443-3.483a3.09 3.09 0 0 1 4.038-1.673l9.633 3.99a3.09 3.09 0 0 1 1.673 4.038l-1.443 3.483c-.501 1.211-.194 2.617.795 3.476a32.598 32.598 0 0 1 3.279 3.286c.86.994 2.268 1.305 3.482.803l3.489-1.445a3.09 3.09 0 0 1 4.038 1.673l3.99 9.633a3.09 3.09 0 0 1-1.673 4.038l-3.489 1.445c-1.214.503-1.99 1.719-1.895 3.03a32.54 32.54 0 0 1 .005 4.642c-.092 1.307.685 2.519 1.896 3.02l3.483 1.443a3.09 3.09 0 0 1 1.673 4.038z" style="fill:rgb(102, 102, 102);animation-play-state:paused" ></path>
<circle fill="#323232" r="24.4" cy="50" cx="50" style="fill:rgb(50, 50, 50);animation-play-state:running" ></circle>
<circle r="15.145" cy="50" cx="50" style="animation-play-state:running" ></circle></g>
<metadata xmlns:d="https://loading.io/stock/" style="animation-play-state:running" ><d:name style="animation-play-state:running" >gear</d:name>


<d:tags style="animation-play-state:running" >gear,config,setting,manage,machine,operational,function,active,work,progress,procedure</d:tags>


<d:license style="animation-play-state:running" >by</d:license>


<d:slug style="animation-play-state:running" >oyg29j</d:slug></metadata></g><!-- generated by https://loading.io/ --></svg>